<svg version="1.1" id="Layer_1" xmlns="http://www.w3.org/2000/svg" x="0" y="0" viewBox="0 0 1080 1080" style="enable-background:new 0 0 1080 1080" xml:space="preserve"><style>.st0{fill:#eaab92}.st1{fill:#ea5a0b}.st2{fill:#fff}.st4{fill:#1f276c}</style><path class="st0" d="M1021.8 763.7c-23.9 14-61.6 54.5-61.6 54.5l-66.4 38.9-94.6 14-69.1-12.1-159.7 147.6c60.6-13.5 341.5-50.3 341.5-50.3l105.5-90.2s53.8-57.4 58.8-83.6c2.5-13.3-15.6-41.5-54.4-18.8z"/><path class="st0" d="M1010.9 724.3c2.5-13.3-15.7-41.5-54.5-18.7-23.9 14-61.5 54.5-61.5 54.5L828.5 799l-4.7.7 24.5-21s46.6-49.8 50.9-72.5c2.1-11.5-13.6-35.9-47.2-16.2-20.7 12.1-53.3 47.3-53.3 47.3L741.3 771l-81.9 12.1s-6.1-.8-16.3-2.3c-58.3 13-143-13.1-186.6-22.8-26.6-5.9-56.3-12.7-85.1-15.1l-67.2 194.4 359.6 1.5c56.3-13 183-40.4 183-40.4l105.5-90.3c-.1-.2 53.7-57.6 58.6-83.8z"/><path class="st0" d="M662.6 784.1c13.9 8 28.8 14.8 42.5 22.9l16.5-10.5s46.5-37.5 52.9-56.8c3.3-9.7-7.4-32.9-39-19.8-19.5 8-162 70-162 70 8.7 4.7 83.6-8.9 89.1-5.8z"/><path class="st0" d="M747.3 775c-22.2-13.4-42.7-7.7-67.5-4.3-35.7 5-70.3 10-106.4 7.7-65.2-4.2-139.8-50.2-205.9-51.8-35.3-.9-67.5 5.5-97.6 17l-.3 71.8c46.5-18.8 99.8-17.7 148.8-13.1 60.8 5.8 117.8 30.3 179.4 31.2 27.4.4 55.3-4.4 82.3-8.5 25.8-3.9 49.5-2.7 70.2-19.5 9.6-7.9 7.1-24.4-3-30.5z"/><path class="st1" d="M730.3 350.6c-66.4-114.1-244-63.1-244.7-62.9-51.1 65.5-118 166.9-149 281.1-53.8 198.2 12.3 298 12.3 298s36.9 76.8 251.9 55.3c73.4-7.3 140.1-4.7 196.4-5.9 95.5-194.2-.3-451.3-66.9-565.6z"/><path class="st1" d="M980.4 765.4C985 591.9 825 287.2 711.5 210.9H552.2s-29 28.7-66.6 76.8c.7-.2 178.2-51.3 244.7 62.9 66.6 114.3 162.3 371.5 67 565.6 109.4-2.4 179.6-19.1 183.1-150.8z"/><path class="st1" d="M552.2 210.9S418.8 15.4 512.7 18.6c93.9 3.2 76.5 37.2 135.3 30.7 58.9-6.5 70.2-48.5 138.1-22.7 68 25.9-89 202.3-89 202.3l-144.9-18z"/><path class="st2" d="M687 524.9c7.1 0 13-5.8 13-13s-5.8-13-13-13H584.1c-7.1 0-13 5.8-13 13s5.8 13 13 13h29.5c12.6 0 23.4 7.4 28.3 18.2h-57.7c-7.1 0-13 5.8-13 13s5.8 13 13 13h57.7c-4.9 10.7-15.7 18.2-28.3 18.2h-29.5c-5.3 0-10.1 3.2-12.1 8.2-1.9 4.9-.8 10.7 3.1 14.3l73.6 69.5c2.5 2.3 5.7 3.5 9 3.5 3.5 0 6.9-1.4 9.5-4 4.9-5.2 4.7-13.4-.5-18.3l-49.9-47.2c25.6-1.4 46.8-19.8 52.5-44.1H687c7.1 0 13-5.8 13-13s-5.8-13-13-13h-17.8c-1.6-6.5-4.2-12.7-7.8-18.2H687v-.1z"/><path class="st1" d="M682.4 166.3S727.1 99 739.2 18.4c0 0 92.2-8.6 58.1 62.4 0 0-14.7 46.7-71.5 113.8l-43.4-28.3z"/><path class="st4" d="M553.6 218.2c-5 .1-9.9-2.3-12.8-6.8-4.5-6.9-2.6-16.2 4.3-20.8 3.1-2.1 77.8-50.2 181.6-13.2 7.8 2.8 11.9 11.4 9.1 19.2-2.8 7.8-11.4 11.9-19.2 9.1-89.2-31.8-152.4 8.3-155 10-2.6 1.7-5.3 2.5-8 2.5z"/><path class="st4" d="M746.8 242.6c-1.6 0-3.3-.3-5-.8-130.9-45.8-214.8-1.4-215.6-1-7.3 4-16.4 1.3-20.4-6s-1.3-16.4 6-20.4c3.9-2.1 96.5-51.1 239.9-1 7.8 2.7 12 11.3 9.2 19.1-2.1 6.2-7.9 10.1-14.1 10.1z"/><path class="st4" d="M656.9 351.8c-2 0-3.9-.4-5.8-1.2-7.6-3.2-11.2-12.1-8-19.7 38.4-90.7 5.5-108.7 5.1-108.8.3.2-1.6-1-1.6-1l13.5-26.6c1.7.7 16.8 7.4 25.5 28.6 11.7 28.4 6.7 68.7-14.8 119.6-2.4 5.7-8 9.1-13.9 9.1z"/><path class="st4" d="M784.3 394.6c-8.2 1.1-15.8-4.6-16.9-12.9 0-.3-3.9-27.8-18-59.2-18.3-40.8-44.2-68.9-77.1-83.4-7.6-3.4-11-12.2-7.7-19.8 3.4-7.6 12.2-11 19.8-7.7 95 42 112.1 161.1 112.7 166.1 1.2 8.3-4.6 15.8-12.8 16.9z"/><circle cx="638.5" cy="587.5" r="158.5" style="fill:none;stroke:#fff;stroke-width:20;stroke-miterlimit:10"/><path d="M811.8 840.8c9.7 21-.9 52.1-37.5 69.9-26.6 13-72.9 33.8-72.9 33.8v-.1L571 1007c-23.4-3.9-322.8-34.3-322.8-34.3l-126.7 42.1-82.6-197c5 .7 202.1-97 285.1-83 87.9 14.8 270.7 134.8 270.7 134.8s76.2-25.1 99-35.2c76.6-33.9 107.1-17.2 118.1 6.4z" style="fill:#ffc0a4"/><path transform="rotate(-19.33 118.118 835.368)" class="st2" d="M64 771.9h108.2v126.8H64z"/><path transform="rotate(-19.33 160.135 955.163)" class="st2" d="M106 891.6h108.2v127H106z"/><path transform="rotate(-19.33 85.327 837.632)" class="st4" d="M23.9 765.7h122.8v143.9H23.9z"/><path transform="rotate(-19.33 133.028 973.573)" class="st4" d="M71.6 901.4h122.8v144.2H71.6z"/></svg>
