<svg id="Layer_2" data-name="Layer 2" xmlns="http://www.w3.org/2000/svg" viewBox="0 0 933.52 761.63"><defs><style>.cls-2,.cls-3,.cls-4{stroke-width:0}.cls-2{fill:#efa896}.cls-3{fill:#2f3976}.cls-4{fill:#ededee}</style></defs><g id="Layer_1-2" data-name="Layer 1"><path class="cls-2" d="m783.28 643.83-.23-.68c-6.25-18.7-26.48-28.78-45.17-22.53l-134.04 44.16c-18.7 6.25-27.43 26.69-21.17 45.39l.23.68c6.25 18.7 26.48 28.78 45.17 22.53l132.68-44.37c18.7-6.25 28.78-26.48 22.53-45.17Z"/><path class="cls-2" d="m809.38 562.27-.52-.5c-14.12-13.75-36.72-13.46-50.47.66l-97.62 100.22c-13.75 14.12-13.46 36.72.66 50.47l.52.5c14.12 13.75 36.72 13.46 50.47-.66l97.62-100.22c13.75-14.12 13.46-36.72-.66-50.47Z"/><path class="cls-2" d="m871.95 529.37-.52-.5c-14.12-13.75-36.72-13.46-50.47.66l-97.62 100.22c-13.75 14.12-13.46 36.72.66 50.47l.52.5c14.12 13.75 36.72 13.46 50.47-.66l97.62-100.22c13.75-14.12 13.46-36.72-.66-50.47Z"/><path class="cls-2" d="m913.29 556.53-.48-.62c-12.99-17.01-37.31-20.26-54.32-7.26L737.8 640.87c-17.01 12.99-20.26 37.31-7.26 54.32l.47.62c12.99 17 37.31 20.26 54.32 7.26l120.69-92.23c17-12.99 20.26-37.31 7.26-54.32Z"/><path d="M883.89 451.5v12.32c-7.1 7.43-13.3 16.1-21.51 21.98-11.89 8.52-25.51 14.58-37.76 22.65-3.57 2.35-6.85 7.87-7.06 12.09-.81 16.33-.14 32.73-.38 49.1-.31 20.45-11.64 31.6-32.17 32.07-4.5.1-9.01-.03-13.51.03-14.31.16-31.45-4.44-42.13 1.87-11.06 6.54-15.85 23.68-23.38 36.19-1.48 2.45-2.53 5.32-4.49 7.28-7.23 7.26-14.76 14.23-22.18 21.31H667c-17.96-10.25-35.78-20.79-54.03-30.51-3.37-1.79-9.33-1.81-12.7-.02-18.26 9.72-36.08 20.26-54.06 30.52h-12.32c-7.44-7.12-16.13-13.34-22.01-21.57-8.5-11.9-14.53-25.54-22.59-37.81-2.33-3.55-7.9-6.76-12.13-6.97-16.75-.79-33.56-.06-50.33-.41-19.07-.4-30.19-11.74-30.85-30.8-.14-4.09 0-8.19-.04-12.28-.17-15.12 4.58-33.04-1.94-44.58-6.44-11.39-24.28-16.34-37.12-24.11-2.1-1.27-4.58-2.14-6.25-3.83-7.24-7.29-14.24-14.81-21.32-22.24v-12.32c10.29-17.96 20.86-35.77 30.6-54.02 1.8-3.38 1.8-9.37 0-12.74-9.74-18.25-20.31-36.05-30.59-54.01v-12.32c7.12-7.42 13.36-16.09 21.59-21.96 11.91-8.5 25.55-14.53 37.82-22.59 3.54-2.33 6.73-7.9 6.94-12.14.8-16.34.19-32.75.36-49.13.21-20.29 11.67-31.63 32.11-32.08 3.68-.08 7.37.02 11.06-.02 15.13-.16 33.05 4.59 44.61-1.93 11.4-6.43 16.38-24.27 24.16-37.11 1.27-2.1 2.1-4.62 3.77-6.29 7.26-7.24 14.76-14.25 22.18-21.34h12.32c17.94 10.31 35.73 20.91 53.97 30.67 3.39 1.82 9.41 1.84 12.8.03 18.25-9.77 36.06-20.38 54.02-30.7h12.32c7.45 7.13 15.94 13.48 22.07 21.61 7.09 9.41 12.93 20.01 17.79 30.79 5.31 11.77 13.05 15.96 25.77 14.51 10.54-1.2 21.33-.25 32.02-.25 31.43 0 40.18 8.85 40.32 40.28.07 16.4-4.88 35.91 2.3 48.3 7.15 12.33 26.47 17.83 40.79 25.7 10.29 5.66 19.18 12.28 23.54 23.63v12.32c-10.29 17.97-20.87 35.78-30.61 54.04-1.8 3.37-1.78 9.36.02 12.74 9.74 18.24 20.31 36.05 30.59 54ZM666.97 263.79c-55.02 73.34-110.26 146.98-166.09 221.41 15.11 11.37 29.44 22.16 44.67 33.62 55.79-74.39 111.19-148.27 166.78-222.39-14.93-11.18-28.36-21.26-41.83-31.3-.62-.46-1.5-.58-3.53-1.33Zm-88.31 30.42c.17-23.76-18.21-42.43-41.68-42.32-22.36.1-41.71 19.14-42.03 41.35-.32 22.59 19.52 42.46 42.28 42.35 22.97-.11 41.26-18.37 41.43-41.38Zm97.06 152.31c-23.3.06-41.27 17.95-41.35 41.15-.08 23.5 18.92 42.74 41.88 42.41 22.28-.32 41.65-19.56 41.95-41.66.31-22.63-19.3-41.96-42.49-41.9Z" style="fill:#e4642b;stroke-width:0"/><path class="cls-4" d="M52.07 545.72c2.3-7.05-1.55-14.63-8.6-16.93-7.05-2.3-14.63 1.55-16.93 8.6-2.3 7.05 1.55 14.63 8.6 16.93 7.05 2.3 14.63-1.55 16.93-8.6ZM95.58 543.45c2.3-7.05-1.55-14.63-8.6-16.93-7.05-2.3-14.63 1.55-16.93 8.6-2.3 7.05 1.55 14.63 8.6 16.93 7.05 2.3 14.63-1.55 16.93-8.6Z"/><path class="cls-3" d="M.19 736.8 0 520.15l19.37-.59L223 517.22l.2 217.94L.19 736.8z"/><path class="cls-4" d="M185.91 543.42c2.3-7.05-1.55-14.63-8.6-16.93-7.05-2.3-14.63 1.55-16.93 8.6-2.3 7.05 1.55 14.63 8.6 16.93 7.05 2.3 14.63-1.55 16.93-8.6Z"/><path class="cls-2" d="m799.97 665.46-.14-.77c-3.76-21.07-23.89-35.1-44.96-31.34L603.92 659.6c-21.07 3.76-33.68 24.34-29.92 45.41l.14.77c3.76 21.07 23.89 35.1 44.96 31.34l149.53-26.7c21.07-3.76 35.1-23.89 31.34-44.96Z"/><path d="m217.44 551.64 95.73-14.04c23.02-3.38 46.47-2.55 69.2 2.43l59.59 13.07c7.36 1.61 14.93 2 22.41 1.16l137.45-15.55c21.26-2.5 40.51 12.7 43.02 33.96l.09.78c2.5 21.26-12.7 40.51-33.96 43.02l-92.36 10.87 89.71 31.97 141.5 1.25 127.35-63.28c19.17-9.52 42.42-1.71 51.95 17.46l.35.7c9.52 19.17 1.71 42.42-17.46 51.95 0 0-153.38 71.63-153.83 71.63 0 0-113.51 19.49-149.45 22.42-6.76.55-16.19-.27-25.84-.48-39.88-.87-151.3-6.26-240.65-37.2l-124.81-21.22v-150.9Z" style="stroke-width:0;fill:#f5bf9a"/><path class="cls-3" d="m472.01 133.6-29.87-17.09a8.164 8.164 0 0 0-7.58-.27l-31.01 14.91c-6.09 2.93-12.89-2.4-11.51-9.01l7.03-33.69a8.14 8.14 0 0 0-2.08-7.29l-23.77-24.89c-4.67-4.89-1.7-13 5.01-13.73l34.21-3.73a8.12 8.12 0 0 0 6.29-4.24l16.33-30.29c3.2-5.95 11.84-5.64 14.61.52l14.11 31.38a8.162 8.162 0 0 0 5.97 4.68l33.86 6.17c6.65 1.21 9.02 9.52 4.02 14.05L482.14 84.2a8.141 8.141 0 0 0-2.6 7.13l4.6 34.1c.9 6.69-6.26 11.52-12.13 8.16ZM375.53 217.52l-16.18-9.21c-1.26-.72-2.8-.77-4.11-.14l-16.85 8.12c-3.31 1.59-6.99-1.28-6.23-4.86l3.87-18.25c.3-1.42-.12-2.9-1.12-3.95l-12.86-13.44c-2.52-2.64-.9-7.04 2.74-7.44l18.57-2.07a4.437 4.437 0 0 0 3.42-2.3l8.91-16.43c1.75-3.22 6.43-3.07 7.93.26l7.61 16.97c.59 1.32 1.8 2.27 3.23 2.52l18.36 3.28c3.6.64 4.88 5.14 2.16 7.6l-13.87 12.56a4.428 4.428 0 0 0-1.42 3.86l2.44 18.46c.48 3.62-3.42 6.25-6.59 4.44Z"/></g></svg>
