<svg xmlns="http://www.w3.org/2000/svg" viewBox="0 0 22 22" style="enable-background:new 0 0 22 22" xml:space="preserve"><path d="m3 13.4 2.7 5.7c.9 1.8 2.7 2.9 4.7 2.9h2.7c2.9 0 5.2-2.3 5.2-5.2v-5.5c0-1-.8-1.8-1.8-1.8-.3 0-.7.1-.9.3-.2-.6-.9-1.1-1.7-1.1-.4 0-.7.1-.9.3-.2-.6-.9-1.1-1.6-1.1-.3 0-.6.1-.8.2v-.6c1.4-.6 2.3-2 2.3-3.5 0-2.2-1.8-3.9-4-3.9s-4 1.8-4 3.9c0 1.5.8 2.8 2.2 3.5V13l-1.3-1.5c-.7-.6-1.8-.5-2.4.2-.6.4-.7 1.1-.4 1.7zm4.4-8.9c-.1-.1-.1-.4-.1-.6 0-.8.7-1.5 1.5-1.5s1.5.7 1.5 1.5c0 .2 0 .5-.2.7-.3-.4-.8-.7-1.4-.7-.4 0-1 .3-1.3.6zm-1.6-.6c0-1.7 1.4-3 3-3s3 1.3 3 3c0 1-.5 1.9-1.4 2.5v-.7c.5-.5.8-1.1.8-1.8 0-1.3-1.1-2.4-2.5-2.4S6.3 2.6 6.3 3.9c0 .6.2 1.2.7 1.6v.7c-.8-.4-1.2-1.3-1.2-2.3zm-1.9 8.3c.3-.3.8-.4 1.1-.2l2.1 2.5c.1.1.3.2.5.1.2 0 .3-.2.3-.4V5.7c0-.5.4-.8.8-.8.5 0 .8.4.8.8v7.7c0 .3.2.5.5.5s.5-.2.5-.5V9.5c0-.4.4-.7.8-.7.5 0 .8.3.8.7v3.9c0 .3.2.5.5.5s.5-.2.5-.5v-3.1c0-.4.4-.7.8-.7.5 0 .8.3.8.7v3.1c0 .3.2.5.5.5s.5-.2.5-.5v-2.2c0-.5.4-.8.8-.8s.8.4.8.8v5.6c0 2.4-1.9 4.2-4.3 4.2h-2.7c-1.6 0-3.1-.9-3.8-2.4L3.9 13c-.2-.3-.1-.6 0-.8z" style="fill:#fff"/></svg>
