<svg version="1.1" id="Layer_1" xmlns="http://www.w3.org/2000/svg" x="0" y="0" viewBox="0 0 1080 1080" style="enable-background:new 0 0 1080 1080" xml:space="preserve" fill="#707070"><style>.st0{fill:none;stroke:#707070;stroke-width:60;stroke-linecap:round;stroke-miterlimit:10}</style><path d="M455.3 715.5c22.3 51 50.7 99.2 84.6 143.4 33.9-44.2 62.4-92.4 84.8-143.4-56.3-2.6-113.1-2.6-169.4 0zM255.8 735.2c47.4 67.2 116.9 115.5 196.4 136.4-32.3-46.8-58.9-97.3-79.4-150.4-39.1 3.4-78.3 8.1-117 14zM216.2 408.4c-32.2 81.4-32.2 172 0 253.4 44.9-7.5 90-13.5 133.8-17.9-15.8-71.8-15.8-146.1 0-217.9-44.1-4.1-89-10.1-133.8-17.6zM429.4 638c36.8-2.1 73.7-3.1 110.5-3.1 37.1 0 73.9 1 110.8 3.1 16.6-67.6 16.6-138.3 0-206-73.7 4.4-147.6 4.4-221.3 0-16.5 67.4-15.1 138.2 0 206zM863.9 661.8c31.8-81.5 31.8-171.9 0-253.4-44.9 7.5-90 13.5-133.8 17.6 15.8 71.8 15.8 146.1 0 217.9 43.7 4.4 88.9 10.4 133.8 17.9zM627.6 198.6c32.5 46.8 59.2 97.3 79.6 150.4 39.2-3.4 78.3-8.3 117-14-47.5-67.2-117.1-115.5-196.6-136.4zM624.7 354.7c-22.4-51.1-50.8-99.2-84.8-143.4-33.9 44.2-62.3 92.4-84.6 143.4 56.3 2.6 113.1 2.6 169.4 0zM978.8 737.9v50.3h-48.4v259.3h-65v-109c-7.1 2.2-14 3.2-20.8 3.2-7.4 0-14.9-1.5-22.6-4.6v2.8c0 26.5-9.3 48.1-27.9 65-18.6 16.9-43.3 25.4-74 25.4-26.5 0-48.2-5.2-65.3-15.7-17.1-10.5-29.8-21.8-38.1-34.1l44.7-41.1c5.8 10.1 13.8 18.8 24 26.1 10.1 7.2 22 10.8 35.5 10.8 12 0 21.5-3.2 28.4-9.7 6.9-6.5 10.4-14.9 10.4-25.4 0-21.2-14.6-31.8-43.8-31.8H691v-54h16.1c26.4 0 39.7-11.8 39.7-35.5 0-9.2-2.9-16.6-8.8-22.1-5.8-5.5-13.7-8.3-23.5-8.3-16.9 0-30.1 7.7-39.7 23.1l-40.6-38.3c8-11.4 19.1-20.7 33.4-27.9 14.3-7.2 30.5-10.8 48.7-10.8 27.1 0 48.8 7.2 65.3 21.5 16.4 14.3 24.7 33.1 24.7 56.5 0 28.6-11.2 48.4-33.7 59.5v1.8c5.5.9 10.8 2.8 15.7 5.5h.5c.6.6 1.5 1.2 2.8 1.8 12 6.2 24.3 9.2 36.9 9.2 14.8 0 27.1-2.6 36.9-7.8v-95.5h-36v-50.3h149.4zM168.1 32.6h98.3L364.6 356h-73.8l-20.3-74.3H162.1L141.3 356h-71l97.8-323.4zm23.5 143.9-13.4 47.1h76.1l-12.5-45.2c-12.6-44.9-20.8-77.2-24.4-96.9h-1.8c-4.6 22.1-12.6 53.8-24 95z"/><path class="st0" d="M540 1045.7c-277.6 0-502.6-225-502.6-502.6 0-22.4 1.5-44.4 4.3-66M391.9 62.7c46.8-14.4 96.6-22.2 148.1-22.2 277.6 0 502.6 225 502.6 502.6 0 40.9-4.9 80.7-14.1 118.7"/></svg>
